HIERARCHY
ROOT root
{
	OFFSET	0	13.1	24.9
	CHANNELS 6  Xposition Yposition Zposition Xrotation Yrotation Zrotation
	JOINT spine_1
	{
		OFFSET	0	9.99999	0
		CHANNELS 3  Xrotation Yrotation Zrotation
		JOINT spine_2
		{
			OFFSET	0	112	-10
			CHANNELS 3  Xrotation Yrotation Zrotation
			JOINT spine_3
			{
				OFFSET	0	206.5	19.3
				CHANNELS 3  Xrotation Yrotation Zrotation
				JOINT spine_4
				{
					OFFSET	0	110.4	14.6
					CHANNELS 3  Xrotation Yrotation Zrotation
					JOINT neck_1
					{
						OFFSET	0	71.8	-50.3
						CHANNELS 3  Xrotation Yrotation Zrotation
						JOINT neck_2
						{
							OFFSET	0	86.2	-25.8
							CHANNELS 3  Xrotation Yrotation Zrotation
							JOINT head_ee
							{
								OFFSET	0	179.8	-8.7
								CHANNELS 3  Xrotation Yrotation Zrotation
								End Site
								{
									OFFSET	1	0	0
								}
							}
						}
					}
					JOINT left_clavicle
					{
						OFFSET	-43.2	22.4	-70.8
						CHANNELS 3  Xrotation Yrotation Zrotation
						JOINT left_shoulder
						{
							OFFSET	-93.9	-5.79999	48.7
							CHANNELS 3  Xrotation Yrotation Zrotation
							JOINT left_elbow
							{
								OFFSET	-291.4	-30.8	15.2
								CHANNELS 3  Xrotation Yrotation Zrotation
								JOINT left_lowarm_twist
								{
									OFFSET	-110.7	-3.89999	13.6
									CHANNELS 3  Xrotation Yrotation Zrotation
									JOINT left_hand
									{
										OFFSET	-110.7	-3.89999	13.6
										CHANNELS 3  Xrotation Yrotation Zrotation
										JOINT left_ee
										{
											OFFSET	-80.8	-5.10001	12.1
											CHANNELS 3  Xrotation Yrotation Zrotation
											End Site
											{
												OFFSET	1	0	0
											}
										}
									}
								}
							}
						}
					}
					JOINT right_clavicle
					{
						OFFSET	43.2	22.4	-70.8
						CHANNELS 3  Xrotation Yrotation Zrotation
						JOINT right_shoulder
						{
							OFFSET	93.9	-5.79999	48.7
							CHANNELS 3  Xrotation Yrotation Zrotation
							JOINT right_elbow
							{
								OFFSET	291.4	-30.8	15.2
								CHANNELS 3  Xrotation Yrotation Zrotation
								JOINT right_lowarm_twist
								{
									OFFSET	110.7	-3.89999	13.6
									CHANNELS 3  Xrotation Yrotation Zrotation
									JOINT right_hand
									{
										OFFSET	110.7	-3.89999	13.6
										CHANNELS 3  Xrotation Yrotation Zrotation
										JOINT right_ee
										{
											OFFSET	80.8	-5.10001	12.1
											CHANNELS 3  Xrotation Yrotation Zrotation
											End Site
											{
												OFFSET	1	0	0
											}
										}
									}
								}
							}
						}
					}
				}
			}
		}
	}
	JOINT left_hip
	{
		OFFSET	-82.8	-127.5	0.300001
		CHANNELS 3  Xrotation Yrotation Zrotation
		JOINT left_knee
		{
			OFFSET	-28.2	-396.7	2.2
			CHANNELS 3  Xrotation Yrotation Zrotation
			JOINT left_ankle
			{
				OFFSET	-11.7	-411.3	35.4
				CHANNELS 3  Xrotation Yrotation Zrotation
				JOINT left_toes
				{
					OFFSET	0	-60	-88.6
					CHANNELS 3  Xrotation Yrotation Zrotation
					JOINT left_foot_ee
					{
						OFFSET	-22.5	-16.5	-42.2
						CHANNELS 3  Xrotation Yrotation Zrotation
						End Site
						{
							OFFSET	1	0	0
						}
					}
				}
			}
		}
	}
	JOINT right_hip
	{
		OFFSET	82.8	-127.5	0.300001
		CHANNELS 3  Xrotation Yrotation Zrotation
		JOINT right_knee
		{
			OFFSET	28.2	-396.7	2.2
			CHANNELS 3  Xrotation Yrotation Zrotation
			JOINT right_ankle
			{
				OFFSET	11.7	-411.3	35.4
				CHANNELS 3  Xrotation Yrotation Zrotation
				JOINT right_toes
				{
					OFFSET	0	-60	-88.6
					CHANNELS 3  Xrotation Yrotation Zrotation
					JOINT right_foot_ee
					{
						OFFSET	22.5	-16.5	-42.2
						CHANNELS 3  Xrotation Yrotation Zrotation
						End Site
						{
							OFFSET	1	0	0
						}
					}
				}
			}
		}
	}
}
MOTION
Frames: 14
Frame Time: 0.02
603.67 714.835 -1161.29 -161.567 -55.8848 -168.447 3.04202 0.151013 2.7993 3.04638 -0.0273481 2.80323 3.04357 -0.470208 2.76368 3.03292 -0.0280137 2.80323 8.71349 7.32119 -0.429168 8.96004 12.5421 -0.421615 -0.0 0.0 -0.0 7.67754 -0.107607 14.9423 -20.6863 -26.7523 43.0567 1.1054 -28.7036 0.282837 43.9847 -0.572584 -5.45357 3.08824 -2.38285 20.151 -0.0 0.0 -0.0 5.86209 -21.1068 -10.9642 -18.327 37.8254 -62.2703 0.778666 21.093 -0.144973 62.8056 2.02997 7.36056 -5.65287 -14.501 30.8906 0.0 0.0 0.0 16.2352 12.9326 5.32756 -17.2298 0.31833 2.61497 31.1903 3.28307 -4.01849 -32.9627 0.0 0.0 -0.0 0.0 -0.0 42.5361 33.1089 -4.07667 -51.3838 1.34481 -7.51079 6.41767 -26.8977 0.974856 7.92641 -0.0 -0.0 0.0 0.0 0.0 
613.278 719.686 -1149.57 -160.015 -55.2042 -167.33 3.20027 0.0848314 3.03401 3.20538 -0.108312 3.03326 3.19769 -0.578676 2.97957 3.18532 -0.101073 3.03351 8.26673 8.06052 0.442531 8.50932 13.0393 0.660387 -0.0 0.0 -0.0 7.22424 0.573531 14.0345 -20.6337 -26.0123 41.7369 1.32324 -33.243 0.395033 43.8795 -0.566279 -5.44167 2.8165 -1.2519 18.6793 -0.0 0.0 -0.0 6.64658 -22.1983 -12.0456 -19.1092 37.6732 -61.5451 0.602694 16.6235 -0.0880506 62.7869 2.02822 7.35892 -5.22017 -12.555 29.1265 0.0 0.0 0.0 16.3422 11.0959 5.35663 -16.9811 0.319363 2.57681 30.6039 3.7086 -3.95563 -33.8216 0.0 0.0 -0.0 0.0 -0.0 39.9756 35.8358 -4.56239 -41.9284 0.593989 -6.26611 5.77498 -28.2276 0.885975 7.04864 -0.0 -0.0 0.0 0.0 0.0 
626.573 720.732 -1140.44 -158.585 -53.9034 -166.086 3.49387 0.279015 2.97614 3.49879 0.0891561 2.98785 3.50123 -0.360546 2.96737 3.48896 0.112403 2.98707 9.86994 8.48114 0.661142 10.141 13.3236 0.833778 -0.0 0.0 -0.0 6.99341 2.18249 13.5688 -19.1355 -25.6556 40.9249 1.60491 -38.4827 0.56022 46.149 -0.707111 -5.69564 2.82323 -1.74125 18.5275 -0.0 0.0 -0.0 6.57666 -24.1739 -11.7798 -19.1601 40.2933 -61.7673 0.477073 13.2968 -0.0556081 63.1177 2.05922 7.3879 -5.46138 -12.4888 30.9658 0.0 0.0 0.0 16.3177 9.82292 5.4045 -16.6033 0.320615 2.51887 30.8289 4.40931 -3.97764 -34.1712 0.0 0.0 -0.0 0.0 -0.0 38.6161 33.8642 -3.73127 -38.1775 0.35491 -5.74145 8.82317 -27.0565 1.33236 7.02544 -0.0 -0.0 0.0 0.0 0.0 
636.313 720.034 -1137.93 -157.546 -53.9404 -165.059 3.68305 0.0787862 2.80938 3.68744 -0.10007 2.8087 3.68031 -0.512263 2.76344 3.66966 -0.0695798 2.80962 11.5974 9.00698 1.1873 11.8838 13.4427 1.39921 -0.0 0.0 -0.0 6.60137 2.53017 12.8063 -17.8729 -25.6829 40.7152 1.74698 -40.8694 0.650946 46.4842 -0.728767 -5.73268 2.85039 -0.740436 19.1266 -0.0 0.0 -0.0 6.44527 -24.4366 -11.5737 -19.6774 40.8643 -61.2104 0.429472 12.0107 -0.04518 63.5183 2.09697 7.42273 -5.43678 -12.7031 30.6247 0.0 0.0 0.0 16.258 6.55951 5.98673 -16.2024 0.321526 2.45736 32.7132 5.09029 -4.17144 -34.1218 0.0 0.0 -0.0 0.0 -0.0 38.9375 40.0318 -5.42583 -35.0017 0.17977 -5.28603 6.77551 -28.1571 1.0362 5.70147 -0.0 -0.0 0.0 0.0 0.0 
649.988 714.234 -1130.61 -157.043 -54.0637 -164.476 3.76587 0.0658882 2.73154 3.77001 -0.107995 2.7302 3.76268 -0.504676 2.68536 3.75263 -0.0744052 2.73132 10.9624 9.33956 1.61531 11.2444 13.6866 1.95261 -0.0 0.0 -0.0 6.3567 4.06606 12.331 -16.2889 -24.7217 39.9341 1.93526 -43.7865 0.777767 47.3902 -0.788373 -5.83215 2.88113 0.725769 19.9301 -0.0 0.0 -0.0 6.02546 -25.2367 -10.9323 -20.7449 41.7796 -59.9289 0.386157 10.8296 -0.0366032 63.3931 2.08514 7.41187 -5.1993 -11.7757 29.5227 0.0 0.0 0.0 15.2172 5.65982 6.16729 -15.276 0.321984 2.31523 35.1889 5.18457 -4.41681 -34.0241 0.0 0.0 -0.0 0.0 -0.0 37.4766 43.6576 -3.26694 -23.5183 -0.237298 -3.576 4.96648 -28.3119 0.763962 3.63073 -0.0 -0.0 0.0 0.0 0.0 
659.715 710.839 -1126.4 -156.364 -53.7446 -163.711 3.80995 0.0932372 2.61166 3.81374 -0.0730805 2.6123 3.80837 -0.450837 2.57416 3.79912 -0.0387827 2.61303 10.5854 9.52419 1.39219 10.8928 14.2554 1.68867 -0.0 0.0 -0.0 6.08967 3.95603 11.8245 -15.538 -25.5612 40.6523 1.96122 -44.1678 0.795791 46.7104 -0.743498 -5.7576 2.7818 0.655967 19.1976 -0.0 0.0 -0.0 5.86126 -24.9598 -10.7276 -21.0681 41.8029 -59.5374 0.402502 11.2764 -0.0397367 65.5033 2.2876 7.59147 -5.48633 -13.2548 30.5886 0.0 0.0 0.0 15.1076 1.69606 6.15485 -14.7736 0.321272 2.23816 36.1617 2.84737 -4.51441 -33.3884 0.0 0.0 -0.0 0.0 -0.0 36.6693 44.2881 -2.21329 -18.9814 -0.306368 -2.88345 5.44114 -26.6153 0.827322 3.05692 -0.0 -0.0 0.0 0.0 0.0 
667.836 713.973 -1121.09 -155.669 -53.4054 -162.851 3.87762 0.0569122 2.57485 3.8813 -0.106993 2.57326 3.87445 -0.475838 2.53117 3.86552 -0.070253 2.57453 10.8469 9.32284 1.33693 11.144 13.9353 1.61147 -0.0 0.0 -0.0 6.09245 3.49876 11.8292 -13.8159 -25.9829 40.6018 2.00833 -44.8475 0.828819 47.1453 -0.772106 -5.80536 2.58324 0.679694 17.8072 -0.0 0.0 -0.0 5.83684 -24.1544 -10.7469 -21.3254 42.0749 -59.0725 0.389992 10.9345 -0.0373272 65.1005 2.24845 7.55777 -5.38474 -12.3241 30.5116 0.0 0.0 0.0 14.6576 0.328096 6.00493 -14.6123 0.3209 2.2134 35.1732 1.12351 -4.42834 -33.82 0.0 0.0 -0.0 0.0 -0.0 36.8215 45.9128 -2.04354 -15.3353 -0.322024 -2.32433 5.10081 -26.7155 0.776726 2.82258 -0.0 -0.0 0.0 0.0 0.0 
677.622 711.457 -1116.45 -154.897 -53.7013 -161.978 3.92539 0.0921021 2.52911 3.92895 -0.0689662 2.52985 3.92389 -0.429767 2.49405 3.91521 -0.0306157 2.5306 10.8323 9.50975 0.906479 11.1717 14.6401 1.07401 -0.0 0.0 -0.0 5.79455 3.09049 11.2591 -12.6329 -26.2552 41.3 2.02156 -45.0355 0.838165 46.6933 -0.742386 -5.75573 2.50309 0.650792 17.234 -0.0 0.0 -0.0 5.91163 -23.9317 -10.8658 -21.6449 42.23 -58.7193 0.349846 9.8321 -0.0300911 65.7418 2.3109 7.6113 -5.17138 -12.788 28.6044 0.0 0.0 0.0 13.4697 -1.7617 6.19986 -12.0172 0.305341 1.81558 34.3633 1.25041 -4.34889 -33.5234 0.0 0.0 -0.0 0.0 -0.0 36.7162 46.7829 -1.8909 -8.20265 -0.249815 -1.233 4.36349 -26.0422 0.663158 1.48531 -0.0 -0.0 0.0 0.0 0.0 
691.369 707.397 -1114.29 -154.078 -53.9674 -161.387 3.92093 0.0536981 2.4119 3.92416 -0.099841 2.41043 3.91813 -0.443502 2.37141 3.91029 -0.0635306 2.41166 9.64632 9.39335 0.752564 9.97757 14.7764 0.952056 -0.0 0.0 -0.0 5.76695 3.62028 11.2111 -11.0569 -26.8606 42.7159 2.07355 -45.7625 0.87518 46.9071 -0.756395 -5.77923 2.02272 0.103755 13.6847 -0.0 0.0 -0.0 5.67013 -23.8099 -10.5351 -21.9486 41.9861 -58.3246 0.447996 12.5127 -0.0491142 66.0374 2.33989 7.63575 -5.20983 -10.1473 30.7414 0.0 0.0 0.0 12.9917 -2.1373 6.55681 -11.9883 0.305066 1.81115 35.8207 -2.48902 -4.52071 -33.3223 0.0 0.0 -0.0 0.0 -0.0 37.0818 47.3305 -1.1374 -5.29034 -0.181383 -0.791363 6.21838 -25.8145 0.939232 0.596965 -0.0 -0.0 0.0 0.0 0.0 
710.798 700.924 -1108.44 -154.947 -53.6435 -162.43 3.83512 0.0978373 2.27379 3.838 -0.0470099 2.27541 3.83457 -0.375117 2.24478 3.82754 -0.0159834 2.27583 9.00831 9.38153 0.858084 9.32632 14.7587 1.11976 -0.0 0.0 -0.0 5.81954 4.62767 11.316 -9.13614 -27.3392 44.2997 2.03623 -45.2426 0.848563 47.1129 -0.769963 -5.80181 1.81215 0.476777 12.389 -0.0 0.0 -0.0 5.49894 -23.8143 -10.2954 -22.8566 42.8903 -57.6289 0.445431 12.4433 -0.04856 64.0639 2.14878 7.46976 -5.22189 -9.88494 31.0157 0.0 0.0 0.0 11.8136 -4.33156 6.63611 -12.7065 0.311231 1.92117 35.859 -4.25469 -4.54593 -33.7061 0.0 0.0 -0.0 0.0 -0.0 36.6874 48.0069 0.706293 -0.553188 -0.0223829 -0.0819418 3.1166 -23.862 0.469754 0.268989 -0.0 -0.0 0.0 0.0 0.0 
720.187 699.959 -1106.74 -154.476 -52.7381 -162.614 3.91466 0.169123 2.35363 3.91775 0.0190556 2.35962 3.9168 -0.318509 2.33811 3.90917 0.0546432 2.35906 9.38601 9.88169 0.577888 9.76591 15.7838 0.751275 -0.0 0.0 -0.0 6.17772 4.08074 11.9914 -7.85114 -27.1516 44.9343 1.82384 -42.0931 0.701857 46.667 -0.740663 -5.75282 1.3232 2.05473 9.69663 -0.0 0.0 -0.0 5.44992 -23.5061 -10.2426 -23.0031 42.8385 -57.3701 0.474671 13.2322 -0.0550569 63.6503 2.10946 7.43416 -5.26447 -9.21163 31.8105 0.0 0.0 0.0 11.75 -4.32418 7.72823 -12.4839 0.309468 1.88707 35.8394 -2.94576 -4.52764 -33.7022 0.0 0.0 -0.0 0.0 -0.0 35.7979 48.0915 1.81269 2.61579 0.116523 0.384429 -1.43768 -23.147 -0.218212 0.387295 -0.0 -0.0 0.0 0.0 0.0 
733.781 696.995 -1104.0 -154.531 -51.9186 -163.036 3.77231 0.317991 2.17501 3.77492 0.178978 2.19083 3.78041 -0.141182 2.19359 3.77376 0.206941 2.18837 9.74679 9.85877 0.615421 10.1259 15.6539 0.773208 -0.0 0.0 -0.0 5.93369 4.04379 11.5293 -6.64344 -27.9472 47.0792 1.81595 -41.9696 0.696574 46.3479 -0.719934 -5.71763 1.2321 1.84632 9.0 -0.0 0.0 -0.0 5.44838 -23.1365 -10.2589 -23.7465 44.4296 -56.9749 0.497063 13.833 -0.0602968 63.2922 2.07563 7.40311 -5.30608 -9.86745 31.6709 0.0 0.0 0.0 11.8061 -4.38116 8.37109 -13.2877 0.31521 2.01026 34.6939 -4.73534 -4.44025 -34.3111 0.0 0.0 -0.0 0.0 -0.0 35.0344 48.3158 2.8275 6.65589 0.33072 0.966904 -4.10031 -22.4458 -0.623624 1.7497 -0.0 -0.0 0.0 0.0 0.0 
750.767 692.675 -1101.97 -153.445 -51.6693 -162.353 3.91767 0.474435 1.97556 3.91978 0.34779 2.00173 3.93077 0.0587599 2.03085 3.92521 0.378693 1.99611 10.6186 10.7926 0.381886 11.1106 17.2559 0.408462 -0.0 0.0 -0.0 5.9527 4.52731 11.5662 -5.39379 -28.2627 49.0203 1.68318 -39.8179 0.609637 46.2683 -0.714792 -5.70884 0.879035 2.93101 7.06718 -0.0 0.0 -0.0 5.54067 -22.3313 -10.4306 -24.0042 44.2047 -55.9131 0.51657 14.3538 -0.0650469 65.3435 2.27205 7.57814 -5.22187 -10.8452 30.3446 0.0 0.0 0.0 12.2385 -4.30719 9.28165 -14.9198 0.321549 2.26058 34.1901 -3.58948 -4.3757 -35.1571 0.0 0.0 -0.0 0.0 -0.0 37.268 48.4883 2.87125 4.55893 0.214402 0.666422 -5.9178 -19.3453 -0.892309 3.62183 -0.0 -0.0 0.0 0.0 0.0 
768.521 692.117 -1091.7 -152.777 -51.8362 -161.779 3.89851 0.522404 1.96067 3.90057 0.396608 1.98992 3.91323 0.108173 2.02616 3.90775 0.426747 1.98368 10.5449 10.7786 1.45634 10.9503 16.2571 1.74971 -0.0 0.0 -0.0 5.52244 5.08563 10.7624 -3.65613 -28.2606 51.1456 1.57876 -38.0252 0.544032 45.5205 -0.667104 -5.62587 0.640378 4.00884 5.91217 -0.0 0.0 -0.0 5.63018 -21.812 -10.5863 -24.6246 45.0219 -55.9514 0.50787 14.1218 -0.062907 63.614 2.10603 7.43102 -5.3393 -11.1885 30.9869 0.0 0.0 0.0 11.0293 -4.9463 10.1956 -13.0497 0.31369 1.97377 31.6717 -1.66697 -4.10011 -36.6809 0.0 0.0 -0.0 0.0 -0.0 40.9012 48.357 -0.276283 0.486949 0.0203575 0.0719524 -7.8717 -20.3637 -1.19481 8.37005 -0.0 -0.0 0.0 0.0 0.0 
